<svg xmlns="http://www.w3.org/2000/svg" width="2400" height="2400" shape-rendering="geometricPrecision" text-rendering="geometricPrecision" image-rendering="optimizeQuality" fill-rule="evenodd" clip-rule="evenodd"><defs><style><![CDATA[.fil0{fill:#007CC3;fill-rule:nonzero}]]></style></defs><path d="M451.122 2101.88c0-76.352 61.892-138.248 138.245-138.248h105.642c-65.684-73.377-105.642-170.262-105.642-276.492v-345.614H451.122c-38.177 0-69.125-30.948-69.125-69.122 0-38.175 30.948-69.124 69.125-69.124h138.245v-138.245h-69.123c-114.525 0-207.37-92.845-207.37-207.37 0-229.054 185.686-414.74 414.739-414.74 0-76.35 61.897-138.246 138.247-138.246v138.246h69.123c24.24 0 47.5 4.173 69.122 11.817v-11.817c0-76.35 61.897-138.246 138.248-138.246v691.23c0 95.417 38.696 181.82 101.246 244.372l33.489 33.488c87.575 87.574 141.758 208.54 141.758 342.102v278.64c0 38.177 30.946 69.123 69.124 69.123h207.366c152.705 0 276.496-123.787 276.496-276.492v-414.736c0-38.176-30.949-69.125-69.125-69.125H1487.97c-114.53 0-207.37-92.84-207.37-207.37v-276.49c0-229.055 185.684-414.74 414.736-414.74 229.054 0 414.74 185.685 414.74 414.74v69.121c0 76.352-61.896 138.248-138.244 138.248V719.421c0-152.705-123.791-276.495-276.496-276.495-152.701 0-276.49 123.79-276.49 276.495v276.49c0 38.177 30.946 69.126 69.124 69.126h414.736c114.529 0 207.37 92.841 207.37 207.369v414.736c0 229.055-185.687 414.74-414.741 414.74H451.126zm841.293-138.248c-7.644-21.622-11.816-44.882-11.816-69.122v-278.64c0-95.414-38.696-181.82-101.245-244.37l-33.488-33.487c-87.576-87.576-141.761-208.54-141.761-342.105V650.294c0-38.176-30.946-69.122-69.122-69.122h-207.37c-152.701 0-276.49 123.79-276.49 276.491 0 38.177 30.945 69.125 69.122 69.125H623.93c57.264 0 103.684 46.42 103.684 103.682v656.67c0 152.705 123.79 276.492 276.492 276.492h288.31zM727.612 667.572c-38.175 0-69.123 30.949-69.123 69.124 0 38.177 30.948 69.124 69.123 69.124 38.177 0 69.125-30.947 69.125-69.124 0-38.175-30.948-69.124-69.125-69.124zm967.724 708.515c-57.261 0-103.684 46.422-103.684 103.682 0 42.758 25.882 79.465 62.831 95.322l-62.831 146.61h207.369l-62.832-146.61c36.95-15.857 62.832-52.564 62.832-95.322 0-57.261-46.42-103.682-103.686-103.682z" fill="#fff"/></svg>